<svg width="385" height="60" viewBox="0 0 385 60" fill="none" xmlns="http://www.w3.org/2000/svg">
<path fill-rule="evenodd" clip-rule="evenodd" d="M41.8317 48.3798H18.2432C18.022 48.3798 17.8121 48.3564 17.6232 48.3318C17.4102 48.304 17.2186 48.2868 17.0281 48.2441C16.8584 48.2061 16.6242 48.1952 16.4674 48.1423C16.3837 48.114 16.3184 48.0801 16.2273 48.0547C16.0977 48.0184 15.9525 48.0061 15.8329 47.9376C15.7889 47.9123 15.7882 47.9028 15.7332 47.8753C15.6505 47.8337 15.577 47.8289 15.4845 47.7955C15.3741 47.7556 15.359 47.7227 15.2748 47.6805C15.084 47.5849 15.1387 47.6437 14.9486 47.5012C14.9095 47.4718 14.8839 47.4662 14.8422 47.4449C14.7486 47.3973 14.7277 47.3537 14.644 47.3022L14.2427 47.0384C14.1261 46.9588 14.0245 46.8139 13.9213 46.719C13.8599 46.6627 13.8087 46.6228 13.7574 46.5622C13.7088 46.505 13.651 46.4436 13.5935 46.3883L13.3396 46.0077C13.2891 45.9106 13.2956 45.8925 13.2235 45.8075C13.1198 45.6854 13.074 45.5237 13.0042 45.3783C12.9223 45.2076 12.9182 45.0627 12.8671 44.8913C12.8096 44.6991 12.7123 44.6275 12.7099 44.4057C12.7093 44.356 12.7136 44.3012 12.7107 44.2522C12.7063 44.1775 12.694 44.1812 12.6914 44.0999C12.6842 43.88 12.6733 43.7042 12.6733 43.4878C12.6733 43.2366 12.6749 42.6374 12.7176 42.3902C12.7383 42.2703 12.7823 42.1952 12.8256 42.0978C12.9094 41.909 12.8857 41.6567 12.984 41.4774C13.0134 41.4239 13.0336 41.4093 13.0582 41.3579C13.0992 41.2719 13.1141 41.1629 13.1697 41.0856C13.3455 40.8406 13.3032 40.7861 13.3723 40.6922C13.4025 40.6511 13.431 40.6247 13.4574 40.5827L13.7987 40.1285C13.9051 40.0264 13.9738 39.9063 14.0799 39.8066L14.753 39.2461C14.7954 39.2137 14.8307 39.2011 14.8731 39.1685C15.0555 39.028 15.1587 39.0461 15.2758 38.9569C15.3834 38.8749 15.4142 38.8792 15.5493 38.8318C15.6618 38.7922 15.6964 38.7214 15.8201 38.6872C15.9801 38.6429 16.1565 38.6403 16.3119 38.5736C16.4983 38.4935 16.6089 38.4937 16.8178 38.4558C17.0717 38.4098 17.6774 38.346 17.9424 38.3227C18.4214 38.2803 19.927 38.3072 20.4673 38.3072L41.5519 38.3078C41.9083 38.3075 41.9731 38.2246 41.9449 37.9328C41.918 37.6542 41.9439 36.7523 41.9439 36.4049V27.1988C41.9439 26.8862 41.9942 26.72 41.6639 26.6887C41.4682 26.6701 39.4701 26.6892 39.1588 26.6892L17.0656 26.723L15.691 26.8328C15.2741 26.8945 15.0398 26.8629 14.5944 26.9744C14.4623 27.0075 14.3852 27.0163 14.2327 27.0364C13.9543 27.0732 13.718 27.0409 13.4955 27.1308C13.1753 27.2604 13.0482 27.2155 12.8326 27.2927C12.7204 27.3328 12.6596 27.3787 12.5414 27.4017C12.4248 27.4244 12.2889 27.4297 12.1756 27.46C12.0627 27.4904 11.9843 27.538 11.8857 27.5703C11.7715 27.6075 11.6381 27.6066 11.5299 27.6377C11.4146 27.671 11.3729 27.7312 11.264 27.7699C11.1457 27.8119 11.0465 27.8092 10.9454 27.8709C10.8417 27.9342 10.7877 27.9695 10.6528 27.9955C10.4843 28.0281 10.4908 28.0617 10.3667 28.1262C10.2139 28.2058 10.1548 28.1531 9.93359 28.2931C9.79063 28.3837 9.66894 28.3647 9.51033 28.4859C9.41273 28.5606 9.33026 28.5594 9.23091 28.6226C9.14527 28.6771 9.07247 28.7264 8.9747 28.7634C8.87657 28.8004 8.80553 28.872 8.71093 28.9142C8.66714 28.9337 8.62019 28.9519 8.57359 28.9764C8.52611 29.0011 8.49921 29.0249 8.45472 29.0551C8.35871 29.1207 8.25021 29.1325 8.17371 29.1905C8.06188 29.2753 7.92313 29.3338 7.8185 29.4283C7.75977 29.4813 7.75151 29.4745 7.68328 29.5093C7.5943 29.5547 7.53574 29.6175 7.45011 29.6712C7.40491 29.6995 7.36798 29.714 7.32332 29.7428C7.28868 29.7651 7.29202 29.7631 7.26195 29.7889L7.07625 29.9089C7.0184 29.9444 7.01506 29.959 6.96688 29.9965C6.89021 30.0563 6.78892 30.0919 6.70733 30.1514L5.36192 31.2388C5.24727 31.3219 5.16497 31.4317 5.0607 31.5256L4.55813 32.0371C4.48955 32.1153 4.42642 32.1592 4.36311 32.2337C4.29207 32.3173 4.21997 32.3604 4.1572 32.4371C4.0589 32.5575 3.9861 32.6295 3.89923 32.7633C3.863 32.819 3.84261 32.8318 3.80005 32.877C3.70967 32.9729 3.5412 33.2323 3.45293 33.3259L3.2755 33.5552C3.21835 33.6393 3.14924 33.6941 3.09684 33.7834C3.03652 33.8862 2.97814 33.9082 2.92803 34.0036C2.90183 34.0536 2.89339 34.0853 2.86718 34.1351C2.82903 34.2075 2.82199 34.1984 2.77451 34.2547L2.46801 34.7405C2.43777 34.7967 2.43601 34.8079 2.38835 34.8549C2.33982 34.9028 2.33841 34.9007 2.30535 34.9663L2.16098 35.2258C2.0815 35.3341 2.08748 35.3741 2.04088 35.4904C1.99621 35.6023 1.92746 35.6229 1.88561 35.74C1.84041 35.8666 1.85483 35.8961 1.7655 36.0045C1.67987 36.1082 1.68567 36.1484 1.63696 36.2784C1.59704 36.3849 1.53743 36.4148 1.4896 36.5182C1.44617 36.6123 1.44054 36.7319 1.40027 36.8278C1.36422 36.9139 1.29863 36.9655 1.2668 37.0802C1.23409 37.198 1.23357 37.2758 1.17466 37.3872C1.00479 37.7078 1.05315 37.7635 0.947288 37.962C0.840022 38.163 0.850221 38.377 0.781816 38.5759C0.751922 38.6632 0.695124 38.7287 0.66523 38.8438C0.57801 39.1801 0.643425 39.0777 0.497472 39.4556C0.456324 39.5619 0.441377 39.6586 0.429595 39.7847C0.419396 39.8927 0.406911 40.0266 0.381765 40.1319C0.355212 40.2436 0.310723 40.3257 0.280301 40.4304C0.221392 40.6327 0.223854 40.8993 0.192553 41.1151L0.0664712 41.7649C0.0239163 42.0118 0.0172342 42.2034 0.0189926 42.4862C0.0198719 42.6232 -0.000174697 42.7096 1.15023e-06 42.8597L0.0186409 44.4393C0.018465 44.6246 0.0378083 44.7448 0.0369291 44.9323C0.0364016 45.0409 0.0555689 45.0708 0.0567999 45.1689C0.061196 45.5048 0.0937277 45.5524 0.160374 45.8562C0.1762 45.9284 0.192729 46.017 0.200994 46.074C0.236339 46.3198 0.229481 46.547 0.287687 46.7767C0.323735 46.9187 0.376841 47.0705 0.392843 47.2076C0.409373 47.3491 0.417286 47.5408 0.446125 47.6688C0.478656 47.8133 0.556556 47.8881 0.598935 48.0395C0.64149 48.1918 0.632347 48.3085 0.699344 48.4579C0.770035 48.6159 0.806435 48.6711 0.835801 48.8606C0.858661 49.0086 0.915636 49.1196 0.969797 49.2484C1.02554 49.3807 1.03592 49.5292 1.10854 49.6489C1.15127 49.7192 1.18134 49.7273 1.21299 49.8087C1.23955 49.8767 1.24763 49.9332 1.27858 50.0038C1.35279 50.1732 1.36686 50.095 1.46006 50.3656C1.50507 50.4964 1.59616 50.58 1.64083 50.7109C1.68497 50.8407 1.74704 50.9484 1.81351 51.0634C1.84622 51.1198 1.86556 51.1828 1.9002 51.2395C1.93379 51.2946 1.98566 51.3378 2.01855 51.3868C2.05143 51.4361 2.07218 51.5021 2.10559 51.5626C2.15641 51.6547 2.18736 51.648 2.23132 51.7202C2.26544 51.776 2.28548 51.8412 2.31731 51.8968C2.3574 51.9668 2.38818 51.9789 2.43443 52.0452C2.47716 52.1066 2.48718 52.16 2.52376 52.2188C2.56068 52.278 2.60904 52.317 2.64702 52.3786C2.68483 52.4398 2.69204 52.4923 2.73706 52.5516C2.77451 52.6008 2.82287 52.6462 2.86015 52.6945L3.09684 53.0059C3.14731 53.094 3.13517 53.0897 3.21061 53.1574C3.31489 53.2511 3.47772 53.4829 3.56266 53.602L3.68575 53.745C3.73042 53.7988 3.74062 53.843 3.79425 53.9011C3.79671 53.9038 3.8004 53.9077 3.80286 53.9102L4.46264 54.5846C4.49113 54.6101 4.51118 54.6252 4.53685 54.6531L4.73749 54.8615C4.94657 55.1063 5.19258 55.3043 5.45284 55.5025C5.50735 55.544 5.54006 55.5867 5.59475 55.6284L5.74545 55.7462C5.81016 55.8094 5.9023 55.8563 5.96543 55.92L7.16295 56.7852C7.231 56.8232 7.26617 56.8448 7.32279 56.8948C7.39155 56.9554 7.55878 57.0407 7.65936 57.1155C7.72566 57.1649 7.7647 57.1684 7.8389 57.2072C7.90625 57.2423 7.93052 57.2833 7.99611 57.3191C8.05977 57.3537 8.1243 57.3652 8.1869 57.4006C8.24177 57.4314 8.28802 57.4745 8.34763 57.5092C8.40953 57.5452 8.47072 57.5592 8.53684 57.592C8.60911 57.6278 8.62547 57.6591 8.69932 57.6992C8.76843 57.7368 8.82787 57.7419 8.89011 57.7806C8.94938 57.8175 8.99228 57.8644 9.05945 57.8985C9.12522 57.9319 9.18835 57.9396 9.25992 57.971C9.45581 58.0573 9.28348 58.0286 9.63711 58.1379C9.73066 58.1668 9.75335 58.1946 9.82421 58.2397C9.94977 58.3194 10.0799 58.2989 10.2171 58.3923C10.2841 58.4378 10.3176 58.461 10.3971 58.4835C10.6561 58.5572 10.7286 58.6436 11.0184 58.7004C11.1842 58.7328 11.2482 58.8164 11.4104 58.8538C11.6103 58.8999 11.6752 58.8859 11.8361 58.9765C11.9903 59.0633 12.0962 59.0503 12.2769 59.1024C12.6777 59.2178 12.3147 59.1711 12.936 59.2678C13.197 59.3084 13.2886 59.406 13.603 59.4431C13.7495 59.4604 13.9248 59.5137 14.0611 59.5534C14.3586 59.6397 14.7289 59.6142 15.0047 59.7151C15.1715 59.7761 15.2628 59.7784 15.4664 59.805C15.8786 59.8589 15.8769 59.7903 16.4825 59.9177C16.5537 59.9327 16.6334 59.9409 16.7237 59.9532C16.9805 59.9885 17.2821 59.9535 17.5469 59.9864C17.7025 60.0058 17.926 59.9987 18.1128 59.9987H41.9817C42.0752 59.9987 42.1688 59.9984 42.2623 59.9989C42.3824 59.9995 42.4238 59.9839 42.5231 59.9811C42.6128 59.9787 42.715 59.9874 42.8031 59.9808L43.5891 59.9308C43.7832 59.9223 43.945 59.9107 44.1295 59.8953C44.2927 59.8819 44.4441 59.8297 44.6167 59.8285C44.7805 59.8274 44.9913 59.8079 45.1489 59.7855C45.3337 59.7592 45.4427 59.725 45.6036 59.6892C45.8795 59.6277 46.3858 59.6411 46.5924 59.5516C46.771 59.4744 46.8092 59.4618 47.0441 59.4356C47.2223 59.4156 47.3235 59.3527 47.4604 59.3044C47.6084 59.2523 47.7795 59.2579 47.9374 59.2114C48.1061 59.1617 48.1634 59.1085 48.3501 59.077C48.6067 59.0335 48.5657 59.0204 48.7595 58.9225C48.8925 58.8554 49.0082 58.8689 49.1585 58.7755C49.2946 58.6908 49.4453 58.6959 49.5742 58.6267C49.9203 58.4405 49.905 58.5378 50.1468 58.3827C50.266 58.3061 50.3842 58.2988 50.5259 58.2005C50.6318 58.127 50.776 58.0866 50.8739 58.0073C50.9416 57.9527 50.9877 57.9528 51.0723 57.9157C51.231 57.8461 51.224 57.7983 51.424 57.7257C51.4985 57.6987 51.5363 57.6677 51.5929 57.6244C51.6777 57.5597 51.7621 57.5557 51.9496 57.422C52.0041 57.3831 52.0621 57.3611 52.1228 57.3246L53.1082 56.6575C53.164 56.614 53.2164 56.5968 53.2793 56.5581C53.4019 56.483 53.7587 56.1797 53.883 56.0706L54.4907 55.5867C54.5799 55.5154 54.7054 55.4165 54.7745 55.335L55.4394 54.6482C55.5156 54.5585 55.6239 54.47 55.7041 54.3791C55.7922 54.279 55.8841 54.1958 55.9685 54.0929C56.0132 54.0382 56.0382 53.998 56.0856 53.9446L56.207 53.8C56.2975 53.6601 56.5678 53.3669 56.6234 53.2781C56.6805 53.187 56.744 53.1477 56.8056 53.0529C56.8745 52.9466 56.9746 52.8453 57.031 52.7312C57.089 52.6138 57.1773 52.5332 57.2404 52.412C57.3099 52.2787 57.4152 52.1748 57.456 52.0813L57.7724 51.5874C57.8577 51.4923 57.8751 51.3376 57.9479 51.2374C58.0453 51.1035 58.0875 50.9391 58.1796 50.8026C58.2403 50.7128 58.2658 50.6244 58.3068 50.5275C58.371 50.376 58.4422 50.3633 58.494 50.1711C58.5164 50.0883 58.5245 50.0396 58.5603 49.9765C58.6562 49.8084 58.6616 49.7984 58.7084 49.6014C58.7413 49.4635 58.8325 49.3585 58.877 49.2281C58.9008 49.1588 58.9045 49.0931 58.9277 49.0193C58.9736 48.8729 59.0578 48.8256 59.0926 48.6426C59.1899 48.1329 59.2155 48.2724 59.2755 48.0445C59.3087 47.9183 59.3198 47.7313 59.3722 47.6059C59.5002 47.2989 59.4895 47.3398 59.5344 46.9719C59.5439 46.8944 59.5565 46.8327 59.5804 46.7591C59.6567 46.5239 59.6967 46.3786 59.7332 46.1165C59.7573 45.9435 59.7633 45.8284 59.8025 45.6699C59.8556 45.4551 59.8871 45.2233 59.9203 44.9957C59.9325 44.9134 59.9225 44.8385 59.9362 44.7554C59.9638 44.589 59.9378 44.4064 59.9434 44.2354C59.9464 44.1446 59.9639 44.1079 59.9629 43.9982C59.9604 43.7621 60 43.5275 60 43.2507V26.469C60 26.3144 59.8945 26.1971 59.7197 26.1971H47.6452C47.2961 26.1971 47.3461 26.55 47.3461 26.7747V43.0808C47.3461 43.3608 47.3257 43.5943 47.2849 43.8744C47.2476 44.1304 47.275 44.4223 47.1903 44.6547C47.1493 44.7669 47.0928 44.8444 47.0677 44.9679C47.0243 45.1814 47.0332 45.2817 46.9082 45.4514C46.8438 45.5389 46.8264 45.6753 46.7663 45.7642C46.7373 45.807 46.6931 45.841 46.6678 45.8955C46.6462 45.9422 46.6351 46.002 46.6149 46.0513C46.5723 46.1552 46.4827 46.2046 46.4243 46.3027C46.3151 46.4865 46.1484 46.6324 46.0225 46.8038C45.8915 46.9825 45.561 47.1996 45.4132 47.3372L45.3952 47.355C45.375 47.3748 45.3891 47.3636 45.3687 47.3817C45.3465 47.4013 45.33 47.4107 45.3061 47.4267C45.2507 47.4636 45.2225 47.4815 45.1731 47.5267C45.053 47.637 44.9823 47.6089 44.8555 47.6797C44.7525 47.7372 44.6742 47.7927 44.5538 47.83C44.3945 47.8797 44.3985 47.9354 44.2573 47.9854C44.1444 48.0253 44.006 48.0277 43.8803 48.0675C43.7565 48.1067 43.6665 48.1642 43.5253 48.1866L42.702 48.3047C42.4264 48.3411 42.131 48.3798 41.8317 48.3798Z" fill="white"/>
<path fill-rule="evenodd" clip-rule="evenodd" d="M47.8125 0.258435V22.4205C47.8125 22.5366 47.838 22.6535 47.8976 22.7187C47.9688 22.7966 48.0479 22.8169 48.1922 22.8169H59.7469C59.932 22.8169 60 22.6987 60 22.5239V0H47.8305C47.8305 0.109276 47.8125 0.143809 47.8125 0.258435Z" fill="#DDF751"/>
<path fill-rule="evenodd" clip-rule="evenodd" d="M256.936 24.6467C258.699 24.6467 268.567 24.5351 269.604 24.7654C270.299 24.9199 270.372 25.1538 271.213 25.608C271.868 25.9613 272.943 27.0957 273.235 27.9039C273.736 29.2879 273.866 29.1534 273.939 30.6304C273.947 30.7842 273.999 31.0853 273.992 31.3299C273.984 31.6046 273.926 31.7734 273.926 32.1732V35.7466C273.926 37.0955 274.103 37.9381 273.649 39.0195L273.147 40.3763C272.983 40.8355 271.846 41.9749 271.478 42.2946C270.952 42.7524 270.631 42.7388 269.714 43.1973L267.466 43.6522H256.935C256.39 43.6522 256.654 42.4713 256.654 41.9034V26.394C256.654 26.0607 256.401 24.6452 256.935 24.6452L256.936 24.6467ZM250.827 21.3015V46.6941C250.827 47.4716 251.162 47.8127 251.473 48.352C251.574 48.528 251.644 48.7082 251.765 48.8713C252.009 49.2003 253.333 49.8112 253.916 49.8112H268.028C269.009 49.8112 269.802 49.4507 270.515 49.3105C271.001 49.2146 271.332 49.2046 271.741 49.0423C272.065 48.9142 272.41 48.6753 272.732 48.5187C273.12 48.3306 273.41 48.3234 273.756 48.0316C274.46 47.4401 274.215 47.7426 274.668 47.4222L275.911 46.3351C276.629 45.5798 276.416 45.7157 276.933 45.009C277.273 44.5434 277.23 44.8523 277.575 44.1078C277.75 43.7301 277.974 43.6042 278.187 43.1737C278.391 42.7617 278.378 42.4412 278.615 42.04C279.297 40.887 278.95 40.9736 279.341 39.6332C279.966 37.4867 279.753 33.3383 279.753 30.8807L279.554 29.4238C279.52 29.054 279.568 28.9918 279.465 28.6835C279.087 27.5484 279.148 27.3238 278.958 26.7238C278.822 26.296 278.58 26.0693 278.427 25.6251C277.896 24.0866 278 24.8076 277.622 23.9879C277.246 23.174 276.652 22.694 276.165 22.144C276.156 22.1326 276.142 22.1161 276.132 22.104C275.734 21.6276 275.55 21.3544 274.988 20.9088C274.812 20.7693 274.689 20.7515 274.506 20.5948C274.333 20.4468 274.253 20.3566 274.063 20.2386C271.721 18.7881 272.739 19.6013 270.807 18.7473C269.902 18.3475 267.599 18.2603 266.553 18.2603H254.336C253.123 18.2603 252.821 18.4283 251.947 19.0942C251.582 19.3725 250.825 20.5633 250.825 21.3007L250.827 21.3015Z" fill="white"/>
<path fill-rule="evenodd" clip-rule="evenodd" d="M93.8355 36.0505H77.1958C76.6806 36.0505 76.8451 34.967 76.8451 34.1501C76.8451 32.096 76.9791 31.8857 77.497 30.295C77.8273 29.2807 77.4323 29.8737 78.1377 28.7078C78.7144 27.7551 78.7943 27.6457 79.6002 26.8704C79.8373 26.6422 79.8631 26.5385 80.1801 26.3575C80.3512 26.2596 80.3512 26.2803 80.4978 26.1694C80.6385 26.0636 80.6577 26.0099 80.807 25.8962C81.0349 25.7224 81.2251 25.6244 81.5237 25.5321C82.6598 25.1824 82.7754 24.6474 84.9889 24.6474H93.9055C94.4194 24.6474 94.3289 25.5286 94.3276 25.711L94.3401 35.1307C94.389 35.5878 94.4022 36.0512 93.8355 36.0512V36.0505ZM72.2107 27.7637H72V49.7353C72.4003 49.7353 72.4855 49.8112 72.9129 49.8112C77.3332 49.8112 76.8444 50.2382 76.8444 46.8457V43.1207C76.8444 42.6215 76.9422 42.4284 77.1251 42.1323C77.752 42.1323 78.1014 42.2081 78.7401 42.2081H92.4312C94.7992 42.2081 94.3441 41.2997 94.3243 48.445C94.321 49.525 94.7576 49.8104 95.7312 49.8104H98.6098C99.565 49.8104 100.014 49.4771 100.014 48.4422V21.0726C100.014 20.4603 99.2314 19.2752 98.8793 19.0327C98.0933 18.4913 97.7789 18.2595 96.504 18.2595H86.5339C85.5318 18.2595 84.7147 18.4026 83.7946 18.4105C82.8104 18.419 82.2139 18.7237 81.4543 18.9934C81.0547 19.135 80.6795 19.1343 80.2984 19.2623C79.8611 19.4089 79.7448 19.6564 79.3459 19.8274C78.1708 20.3302 78.8306 19.8037 77.9501 20.597C77.8339 20.7021 76.7222 21.3093 75.845 22.2706C75.3575 22.8049 74.874 23.2856 74.4037 23.827C74.1553 24.1131 74.1025 24.4357 73.8693 24.769C73.5741 25.191 73.4479 25.1016 73.2557 25.7009C72.9584 26.6272 72.9769 26.2202 72.724 26.7216C72.6262 26.9154 72.5859 27.0306 72.5198 27.2602C72.4465 27.5148 72.4498 27.7637 72.212 27.7637H72.2107Z" fill="white"/>
<path fill-rule="evenodd" clip-rule="evenodd" d="M153.866 33.314C153.866 34.9705 153.738 42.6444 154.024 43.7867C154.163 44.3431 154.433 44.5792 154.584 45.1564C154.785 45.9217 154.774 45.838 155.217 46.3715C155.55 46.7742 155.639 47.0603 156.072 47.4222C156.444 47.7326 156.628 48.051 157.01 48.3077L158.171 49.0273C158.594 49.259 159.113 49.2769 159.564 49.4199C160.092 49.588 160.317 49.8112 161.028 49.8112H169.734C171.158 49.8112 170.787 47.9365 170.787 46.2378C170.787 45.1278 171.148 43.9111 170.129 43.6808C168.848 43.3911 161.844 43.9805 160.775 43.4705C160.55 43.3632 159.977 42.977 159.851 42.7989C159.551 42.3755 159.694 38.4066 159.694 37.7228C159.694 36.7558 159.78 35.2095 159.683 34.3125C159.629 33.8097 159.621 33.2904 159.862 32.887C160.058 32.5573 160.413 32.249 160.888 32.249H170.787C171.592 32.249 171.816 32.4414 172.109 33.0222C172.398 33.5944 172.261 34.1323 172.261 34.9863L172.265 52.0191C172.268 52.5427 172.257 52.5978 172.001 52.8738C171.512 53.4003 171.514 53.622 170.578 53.6134L162.149 53.6105C161.486 53.6048 160.958 53.8008 160.958 54.6012V58.7825C160.958 59.4033 161.168 59.0643 161.168 59.9991H171.911V59.5428C173.269 59.5428 173.705 58.977 174.367 58.6287C175.345 58.1144 175.522 57.8985 176.247 57.0158C176.63 56.5495 176.641 56.6053 176.908 55.983C177.326 55.0096 177.342 55.875 177.674 54.0747C177.72 53.8251 177.761 53.5884 177.822 53.323C177.924 52.8838 178.09 52.3467 178.09 51.7881V33.5422C178.09 33.0272 177.852 32.9249 177.718 31.8921C177.634 31.2448 177.554 30.83 177.262 30.3336C176.489 29.0183 177.003 29.3945 176.106 28.5441C175.88 28.3302 175.856 28.1707 175.645 27.979C175.479 27.8281 175.303 27.7101 175.112 27.5678C174.857 27.3789 174.806 27.2538 174.592 27.0656C174.139 26.6673 173.939 26.9054 173.241 26.4763C172.715 26.153 172.541 26.0758 171.777 26.0085C168.482 25.7181 164.678 25.8633 161.31 25.8633C160.707 25.8633 160.273 25.9563 159.707 26.0285C158.639 26.1652 158.562 26.5035 157.755 26.8039C157.231 26.9984 157.251 27.0893 156.928 27.3525C156.628 27.5957 156.488 27.625 156.175 28.0577C155.881 28.4625 155.581 28.602 155.345 29.0597C154.928 29.8673 154.899 29.5318 154.666 30.3007C154.41 31.1447 153.868 31.8635 153.868 33.314H153.866Z" fill="white"/>
<path fill-rule="evenodd" clip-rule="evenodd" d="M214.317 26.6235V30.8807C214.317 32.0086 215.659 31.7168 215.861 31.7168H225.832C226.247 31.7168 227.213 32.3934 227.328 32.5293C227.558 32.8033 227.797 33.9977 227.797 34.5298V40.8397C227.797 41.7932 227.618 43.1493 226.923 43.5419C226.735 43.6478 226.597 43.6399 226.345 43.6764C224.625 43.9289 219.261 43.8044 217.195 43.8044C216.653 43.8044 215.982 43.7472 215.624 43.5283C214.654 42.934 214.808 42.1858 214.808 41.2954C214.808 39.0481 219.055 39.6231 220.284 39.6231C220.99 39.6231 224.868 39.7211 225.353 39.5616C225.805 39.4128 226.112 39.0152 226.112 38.4065V34.9096C226.112 33.9948 225.682 33.6172 224.848 33.6172H216.493C215.946 33.6172 215.289 33.693 214.886 33.8539C214.662 33.9434 214.511 34.0606 214.256 34.1601C212.738 34.7509 212.658 34.7666 211.42 36.107C210.091 37.546 210.72 36.9402 210.242 37.7964C209.51 39.1081 209.895 38.0231 209.524 40.0594C209.249 41.5721 209.064 41.5013 209.343 42.5756C209.406 42.8195 209.409 43.2029 209.452 43.4461C209.781 45.3014 209.872 44.9224 210.242 45.6312C210.359 45.8536 210.366 46.0746 210.507 46.3321L211.9 47.8656C212.08 48.1238 212.096 48.1853 212.37 48.3441C212.602 48.4771 212.789 48.5115 213.007 48.6431C213.248 48.7883 213.32 48.9585 213.576 49.0915L215.061 49.5364C215.509 49.7009 216.134 49.8103 216.704 49.8103H226.182C226.59 49.8103 228.772 49.2167 229.064 49.0536C229.343 48.8984 229.341 48.824 229.592 48.6366C229.81 48.4743 229.956 48.4328 230.166 48.2697C230.569 47.9571 230.749 47.6689 231.138 47.3449C231.586 46.9716 232.428 45.5561 232.573 44.9452C232.899 43.5727 233.274 43.1099 233.274 41.751V33.4641L232.53 30.3922C232.352 29.8743 232.043 29.659 231.831 29.1727C231.561 28.5554 231.421 28.7585 230.967 28.1306C230.837 27.9503 230.704 27.8108 230.538 27.6835C229.913 27.205 229.569 26.8746 228.78 26.6221C227.833 26.3189 227.868 25.8611 225.832 25.8611H215.37C214.837 25.8611 214.317 26.0563 214.317 26.6214V26.6235Z" fill="white"/>
<path fill-rule="evenodd" clip-rule="evenodd" d="M287.267 28.0683V29.3608C287.267 31.568 286.923 31.7175 289.513 31.7175C292.383 31.7175 295.86 31.6467 298.644 31.7139C299.033 31.7232 299.244 31.8234 299.514 31.9886C299.753 32.1359 300.077 32.2418 300.243 32.4149C300.462 32.643 300.888 33.7774 300.888 34.2259C300.888 35.5555 301.038 41.4649 300.7 42.3096C300.594 42.5763 300.321 43.1736 300.189 43.3524C299.97 43.6485 299.542 43.7236 299.063 43.7293C298.553 43.7358 298.178 43.8051 297.588 43.8051C296.42 43.8051 289.483 43.9582 288.738 43.5805C288.409 43.4139 287.757 42.6329 287.8 42.0228C287.853 41.2875 287.782 40.849 288.438 40.1317C288.765 39.7733 289.898 39.6195 290.425 39.6217L297.729 39.6245C298.408 39.6295 299.132 39.5602 299.132 38.483V34.8338C299.132 33.9369 298.755 33.6172 297.938 33.6172H289.513C288.25 33.6172 287.661 34.0256 286.579 34.3932C286.299 34.4884 285.144 35.2365 284.895 35.5348C284.218 36.3494 284.296 36.1205 283.574 37.1448C283.422 37.3593 283.35 37.5189 283.245 37.7771C282.995 38.3908 282.552 39.0645 282.494 39.9292C282.469 40.3069 282.491 40.5636 282.443 40.8626C282.399 41.1387 282.312 41.5736 282.301 41.7674C282.292 41.9491 282.477 42.7931 282.491 43.5012C282.504 44.1728 282.69 44.5433 282.943 44.9875C283.287 45.589 283.327 46.0768 283.525 46.3342L284.908 47.8777C285.263 48.3891 285.501 48.274 286.018 48.6524C287.305 49.5951 286.521 49.0014 288.047 49.4963C288.523 49.6508 289.052 49.8096 289.653 49.8096H299.061C299.635 49.8096 301.666 49.2896 302.013 49.128C302.315 48.9864 302.423 48.7089 303.042 48.3412C303.719 47.9393 303.604 47.8978 304.087 47.4965C304.542 47.1189 304.528 46.8728 304.846 46.418C305.011 46.1826 305.129 46.1476 305.266 45.8837C305.391 45.6426 305.417 45.4366 305.495 45.1441C305.784 44.0584 306.223 43.941 306.223 41.9784C306.223 40.4006 306.297 33.7538 306.157 32.6988C305.926 30.9737 306.153 31.9628 305.522 30.4215C304.803 28.6648 304.296 28.6026 303.976 28.1427C303.617 27.6284 303.38 27.637 302.978 27.2465C302.614 26.8939 301.02 26.1751 300.426 26.0563C299.888 25.9491 299.378 25.8611 298.781 25.8611H289.162C286.741 25.8611 287.267 26.5255 287.267 28.0655V28.0683Z" fill="white"/>
<path fill-rule="evenodd" clip-rule="evenodd" d="M347.858 33.6938V41.6767C347.858 42.3805 348.319 44.4947 348.478 45.0354C348.592 45.4231 348.668 45.3551 348.853 45.6176C349.306 46.2592 348.814 46.1105 350.087 47.3986C350.379 47.694 350.684 48.1539 351.039 48.3449C351.297 48.4836 351.426 48.4793 351.662 48.6589C352.997 49.6724 352.15 48.93 353.747 49.5179C354.213 49.6895 354.725 49.8118 355.371 49.8118C356.655 49.8118 363.392 49.9492 364.106 49.691C364.348 49.6037 364.43 49.5322 364.558 49.3441C364.995 48.7018 364.849 46.6412 364.849 45.6305C364.849 43.2917 363.861 43.8059 362.112 43.8059H355.793C354.489 43.8059 353.406 43.4311 353.406 41.829V34.2267C353.406 33.4885 353.429 32.7418 353.853 32.4307C354.075 32.2683 354.313 32.1889 354.542 32.0359C354.788 31.8721 354.994 31.7176 355.371 31.7176H364.359C364.83 31.7176 366.022 32.3871 366.18 32.8627C366.429 33.613 366.357 34.8968 365.852 35.3875C365.725 35.5105 365.707 35.5026 365.575 35.6192C365.43 35.7472 365.478 35.7415 365.297 35.851C364.684 36.2222 361.438 36.0505 360.426 36.0505C353.954 36.0505 354.88 35.5928 354.88 39.0918C354.88 40.2376 354.372 41.9048 356.214 41.9048H364.849C365.62 41.9048 367.127 41.5822 367.728 41.1445C368.401 40.6545 368.605 40.7969 369.512 39.807L369.816 39.4522C370.212 39.0209 370.384 38.953 370.616 38.3414C370.824 37.7929 371.105 37.7571 371.282 37.0862C371.36 36.7879 371.378 36.5612 371.457 36.2873C371.761 35.2323 371.907 35.1221 371.804 33.8426C371.749 33.1438 371.875 32.6882 371.702 32.0523C371.625 31.7712 371.558 31.586 371.475 31.3099C371.388 31.0245 371.367 30.8156 371.278 30.5346C371.028 29.7449 370.76 29.7528 370.558 29.3372C370.214 28.632 370.12 28.6556 369.547 27.9997L368.223 26.924C368.009 26.806 367.831 26.7473 367.561 26.6522C366.513 26.2824 366.375 25.8633 364.639 25.8633H355.02C353.276 25.8633 353.155 26.2824 352.151 26.6336C351.627 26.8167 351.411 26.9333 351.036 27.3274C350.656 27.7265 350.398 27.6886 350.034 28.2186C349.505 28.9882 349.518 28.6442 349.238 29.2571C348.325 31.2462 348.689 29.7549 348.24 32.1303C348.127 32.7239 347.858 33.0129 347.858 33.6938Z" fill="white"/>
<path fill-rule="evenodd" clip-rule="evenodd" d="M134.699 49.8118H142.773C143.728 49.8118 144.177 49.4785 144.177 48.4435C144.177 43.2072 144.527 43.8059 141.439 43.8059C140.418 43.8059 134.152 43.9761 133.56 43.5184C133.324 43.3352 133.167 43.0241 132.999 42.7573C132.788 42.4212 132.662 42.2259 132.662 41.6773V34.1508C132.662 32.6023 133.654 31.7182 135.049 31.7182H143.474C143.906 31.7182 144.877 32.0952 145.181 32.3798C145.606 32.7789 145.741 33.5199 145.651 34.223C145.406 36.1249 144.116 36.0519 142.702 36.0519H135.751C133.882 36.044 134.277 36.4238 134.277 40.6137C134.277 41.4084 134.636 41.9062 135.401 41.9062H144.037C144.698 41.9062 146.445 41.6201 146.903 41.2853C147.809 40.6237 147.615 40.8991 148.037 40.613C148.31 40.4285 148.679 39.9578 148.933 39.6825C150.315 38.1862 150.234 37.948 150.917 36.2042C151.358 35.0784 151.118 33.7617 151.129 32.6302C151.137 31.7983 150.546 30.1697 150.074 29.5153C149.927 29.3121 149.81 29.1247 149.669 28.8894L147.621 26.9254C147.164 26.6736 147.247 26.886 146.237 26.2945C146.004 26.1579 145.778 26.1214 145.471 26.0606C143.675 25.703 137.389 25.8654 135.19 25.8654C132.177 25.8654 132.79 26.2251 131.319 26.6915C130.555 26.9339 130.82 27.0798 129.952 27.72C129.144 28.3158 129.251 28.5361 128.783 29.0389C128.297 29.5625 128.355 29.8886 127.929 30.6225C127.496 31.3706 127.662 31.8427 127.468 32.7081C127.214 33.8418 127.327 33.713 127.326 34.9111C127.326 36.4932 127.231 41.6158 127.353 42.4841C127.555 43.9139 127.524 44.4553 128.113 45.4631C128.277 45.7428 128.35 46.0331 128.54 46.2935C129.147 47.1253 128.939 47.0774 129.614 47.6389C130.248 48.166 129.73 47.9586 130.646 48.4228C131.542 48.877 130.69 48.8598 132.691 49.4019C133.319 49.5722 133.975 49.8125 134.699 49.8125L134.699 49.8118Z" fill="white"/>
<path fill-rule="evenodd" clip-rule="evenodd" d="M309.875 29.7406V47.9865C309.875 49.1659 310.187 49.8111 311.279 49.8111H314.508C315.127 49.8111 315.437 49.6137 315.617 49.1116C315.821 48.5465 315.702 47.8592 315.702 47.4544V32.7053C315.702 32.4592 316.007 32.249 316.263 32.249C317.853 32.249 324.831 32.1546 325.936 32.3434C326.398 32.4221 326.559 32.7032 327.158 33.1488C328.797 34.3683 328.48 37.6526 328.48 39.6997C328.48 41.6258 328.48 43.552 328.48 45.4774C328.48 50.3976 327.925 49.8111 333.255 49.8111C333.791 49.8111 334.097 49.2611 334.097 48.671V34.9862C334.097 33.4942 333.683 33.1616 333.368 32.1259C333.244 31.7161 333.219 31.548 333.017 31.214C332.734 30.7477 332.412 30.0732 332.079 29.7206C331.56 29.1691 331.623 28.9174 330.915 28.4718C330.195 28.0197 330.554 27.9518 329.583 27.4819C329.268 27.3295 329.168 27.17 328.901 27.0041C328.624 26.831 328.367 26.7795 328.003 26.6843C327.557 26.5685 327.542 26.5091 327.205 26.3318C326.96 26.203 326.586 26.0571 326.295 26.0249C325.565 25.9427 324.894 25.8625 324.128 25.8625H313.035C311.69 25.8625 311.609 26.3175 311.21 26.6236C310.99 26.7938 310.788 26.8997 310.62 27.1243L310.395 27.5656C310.111 28.3123 309.875 28.8637 309.875 29.7399L309.875 29.7406Z" fill="white"/>
<path fill-rule="evenodd" clip-rule="evenodd" d="M110.265 19.2494L110.276 24.7124C110.427 26.1422 110.431 25.864 107.386 25.864C106.679 25.864 105.754 25.8082 105.073 25.8683C104.325 25.9341 103.595 25.9462 103.595 26.8524V30.8056C103.595 31.7747 103.808 32.1817 104.65 32.2482C105.646 32.3269 108.303 32.2225 109.568 32.2454C110.593 32.264 110.265 33.0815 110.265 33.9992V48.3677C110.265 49.2224 110.599 49.8125 111.389 49.8125C112.368 49.8125 115.128 49.9978 115.687 49.525C115.904 49.3419 116.093 48.9199 116.093 48.5201V33.9992C116.093 33.4999 115.937 32.8941 116.115 32.5794C116.357 32.1524 116.775 32.2497 117.357 32.2511H123.395C123.947 32.2518 124.356 32.3283 124.648 32.0115C124.89 31.749 124.94 31.1618 124.94 30.6547C124.94 25.6108 125.34 25.8654 122.974 25.8654H117.217C115.648 25.8676 116.093 25.8096 116.093 24.1166V19.175C116.093 18.3975 115.207 18.2623 114.478 18.2623H111.599C110.856 18.2623 110.266 18.4347 110.266 19.2508L110.265 19.2494Z" fill="white"/>
<path fill-rule="evenodd" clip-rule="evenodd" d="M374.82 17.2724V42.7409C374.82 43.484 375.188 44.2514 375.402 44.8465C375.488 45.0826 375.524 45.2921 375.626 45.5174C375.813 45.9316 376.097 46.194 376.295 46.6175C376.554 47.1739 377.515 48.0451 378.034 48.3834C378.241 48.5186 378.409 48.5479 378.61 48.6724C378.789 48.7832 378.915 48.9055 379.124 49.0279C379.595 49.3047 379.911 49.2489 380.463 49.4027C380.955 49.54 381.273 49.8111 381.841 49.8111C382.539 49.8111 383.91 49.9226 384.446 49.5915C384.668 49.4541 384.4 49.4305 385 49.4305V43.881C384.532 43.881 384.549 43.8094 384.176 43.7093C383.542 43.5391 382.17 43.8566 381.507 43.3295C381.043 42.9604 380.748 42.9154 380.563 42.223C380.411 41.6544 380.506 32.4277 380.506 31.3363V18.336C380.506 15.7046 380.282 16.0551 376.504 16.0551C375.639 16.0551 374.819 16.1359 374.819 17.2717L374.82 17.2724Z" fill="white"/>
<path fill-rule="evenodd" clip-rule="evenodd" d="M200.626 34.8346V48.1388C200.626 49.2568 200.999 49.8111 202.03 49.8111H205.261C205.984 49.8111 206.454 49.4163 206.454 48.5945V34.8338C206.454 34.1529 206.274 33.5865 206.243 32.9335C206.14 30.7798 206.194 31.9107 205.64 30.3929C205.256 29.3386 205.488 29.8515 204.899 29.0676C204.019 27.8974 203.352 27.2244 202.06 26.6672C200.876 26.1565 200.481 25.8625 198.801 25.8625H190.587C190.204 25.8625 189.816 25.9398 189.647 26.2137C189.509 26.4397 189.44 26.9912 189.491 27.3495C189.79 29.4223 189.005 32.0308 190.179 32.2347L197.959 32.249C199.944 32.249 200.259 32.0301 200.631 33.5385C200.735 33.962 200.627 34.321 200.627 34.8338L200.626 34.8346Z" fill="white"/>
<path fill-rule="evenodd" clip-rule="evenodd" d="M182.302 17.7288V48.1389C182.302 49.0644 182.572 49.8112 183.425 49.8112C188.319 49.8112 187.848 50.2031 187.848 46.8458V19.0206C187.848 17.5364 188.251 16.0559 186.514 16.0559H183.565C182.591 16.0559 182.302 16.6882 182.302 17.7281V17.7288Z" fill="white"/>
<path fill-rule="evenodd" clip-rule="evenodd" d="M338.38 26.8517V48.4428C338.38 49.4785 338.83 49.8111 339.785 49.8111H342.663C344.163 49.8111 344.068 49.0386 344.068 47.9106C344.066 44.77 343.97 28.6684 344.121 27.2079C344.264 25.8332 343.19 25.8632 342.172 25.8632C341.401 25.8632 339.734 25.8175 339.039 25.9684C338.604 26.0628 338.38 26.3167 338.38 26.8517Z" fill="white"/>
<path fill-rule="evenodd" clip-rule="evenodd" d="M338.38 17.4248V20.5418C338.38 21.4774 338.78 21.9101 339.644 21.9101H342.733C343.535 21.9101 344.068 21.6304 344.068 20.77V17.2732C344.068 16.1373 343.248 16.0565 342.383 16.0565C341.777 16.0565 339.321 15.9914 338.888 16.2253C338.555 16.4049 338.38 16.8977 338.38 17.4248Z" fill="white"/>
</svg>
